<svg width="32" height="32" viewBox="0 0 32 32" fill="none" xmlns="http://www.w3.org/2000/svg">
<circle opacity="0.1" cx="16" cy="16" r="16" fill="#75B248"/>
<path fill-rule="evenodd" clip-rule="evenodd" d="M10.6961 22.095C8.54464 22.0753 6.80664 20.3171 6.80664 18.1511C6.80664 16.7197 7.56567 15.4664 8.70143 14.7752C8.60427 14.5008 8.55134 14.205 8.55134 13.8967C8.55134 12.4613 9.69872 11.2976 11.1141 11.2976C11.4243 11.2976 11.7216 11.3535 11.9968 11.4559C12.853 9.70488 14.6428 8.5 16.7122 8.5C19.4109 8.5 21.6342 10.5493 21.9312 13.1867C23.9462 13.6305 25.4543 15.4332 25.4543 17.5895C25.4543 20.079 23.4443 22.0971 20.9649 22.0971C20.9428 22.0971 20.9208 22.0969 20.8987 22.0966H17.3844V18.0244H14.9126V22.0966H10.6961V22.095ZM15.5941 14.1897C15.8703 13.8177 16.4271 13.8177 16.7033 14.1897L18.7303 16.9205C19.0686 17.3762 18.7433 18.0228 18.1758 18.0228H14.1216C13.554 18.0228 13.2287 17.3762 13.567 16.9205L15.5941 14.1897Z" fill="#75B248"/>
</svg>
